<svg height="65" viewBox="0 0 36 45" fill="none" xmlns="http://www.w3.org/2000/svg">
<path d="M0 2C0 0.89543 0.895431 0 2 0H34C35.1046 0 36 0.895431 36 2V42.9397C36 44.0442 35.1046 44.9397 34 44.9397H2C0.895431 44.9397 0 44.0442 0 42.9397V2Z" fill="#60a073"/>
<path d="M0 2C0 0.89543 0.895431 0 2 0H34C35.1046 0 36 0.895431 36 2V42.9397C36 44.0442 35.1046 44.9397 34 44.9397H2C0.895431 44.9397 0 44.0442 0 42.9397V2Z" fill="#60a073"/>
<path d="M0 2C0 0.89543 0.895431 0 2 0H34C35.1046 0 36 0.895431 36 2V42.9397C36 44.0442 35.1046 44.9397 34 44.9397H2C0.895431 44.9397 0 44.0442 0 42.9397V2Z" fill="#60a073"/>
<path d="M0 2C0 0.89543 0.895431 0 2 0H34C35.1046 0 36 0.895431 36 2V42.9397C36 44.0442 35.1046 44.9397 34 44.9397H2C0.895431 44.9397 0 44.0442 0 42.9397V2Z" fill="#60a073"/>
<path d="M2 44.9397H34C35.1046 44.9397 36 44.0442 36 42.9397V2C36 0.895431 35.1046 0 34 0H2C0.895431 0 0 0.89543 0 2V42.9397C0 44.0442 0.895431 44.9397 2 44.9397Z" stroke="#024702"/>
<line x1="5.99996" y1="6.49991" x2="23" y2="6.5" stroke="#024702"/>
<line x1="6" y1="14.5" x2="29" y2="14.5" stroke="#024702"/>
<line x1="6" y1="22.5" x2="29" y2="22.5" stroke="#024702"/>
<line x1="6" y1="30.5" x2="29" y2="30.5" stroke="#024702"/>
<line x1="6" y1="38.5" x2="29" y2="38.5" stroke="#024702"/>
</svg>
